<svg width="22" height="20" viewBox="0 0 22 20" fill="none" xmlns="http://www.w3.org/2000/svg">
<g id="Icon">
<path fill-rule="evenodd" clip-rule="evenodd" d="M2.97782 0.325437C2.54825 -0.108479 1.85176 -0.108479 1.42219 0.325437C0.992608 0.759353 0.992608 1.46287 1.42219 1.89679L4.08877 4.5903C2.51504 5.78597 1.14318 7.42826 0.11613 9.5031C-0.0387101 9.81591 -0.0387101 10.1841 0.11613 10.4969C2.49018 15.293 6.70657 17.7778 11 17.7778C12.7107 17.7778 14.4091 17.3833 15.9837 16.6053L19.0222 19.6746C19.4518 20.1085 20.1483 20.1085 20.5779 19.6746C21.0074 19.2406 21.0074 18.5371 20.5779 18.1032L2.97782 0.325437ZM14.3152 14.92L12.4228 13.0085C11.992 13.2167 11.5095 13.3333 11 13.3333C9.17748 13.3333 7.70002 11.841 7.70002 10C7.70002 9.4854 7.81546 8.99803 8.02163 8.56287L5.66323 6.18066C4.38656 7.08822 3.24194 8.35707 2.34263 10C4.39787 13.7547 7.73435 15.5556 11 15.5556C12.1147 15.5556 13.2377 15.3457 14.3152 14.92Z" fill="#363D42"/>
<path d="M18.2076 12.1061C18.7389 11.4891 19.2263 10.7875 19.6574 10C17.6021 6.24531 14.2656 4.44444 11 4.44444C10.8768 4.44444 10.7535 4.44701 10.6301 4.45214L8.66735 2.46953C9.43517 2.30501 10.2163 2.22222 11 2.22222C15.2934 2.22222 19.5098 4.70705 21.8839 9.5031C22.0387 9.81591 22.0387 10.1841 21.8839 10.4969C21.2855 11.7057 20.5701 12.7678 19.7659 13.6802L18.2076 12.1061Z" fill="#363D42"/>
</g>
</svg>
